<mxfile host="app.diagrams.net" agent="Mozilla/5.0 (Macintosh; Intel Mac OS X 10_15_7) AppleWebKit/537.36 (KHTML, like Gecko) Chrome/130.0.0.0 Safari/537.36" version="24.8.6">
  <diagram name="Страница — 1" id="AuDFA4mkeAujpIhv9abg">
    <mxGraphModel grid="1" page="1" gridSize="10" guides="1" tooltips="1" connect="1" arrows="1" fold="1" pageScale="1" pageWidth="827" pageHeight="1169" math="0" shadow="0">
      <root>
        <mxCell id="0" />
        <mxCell id="1" parent="0" />
        <mxCell id="3MwxsGR7Ld4jN5NIhHju-1" value="Start: Запрос на классификацию" style="whiteSpace=wrap;strokeWidth=2;" vertex="1" parent="1">
          <mxGeometry x="323" y="20" width="178" height="66" as="geometry" />
        </mxCell>
        <mxCell id="3MwxsGR7Ld4jN5NIhHju-2" value="Получение описания товара" style="rhombus;strokeWidth=2;whiteSpace=wrap;" vertex="1" parent="1">
          <mxGeometry x="303" y="136" width="220" height="220" as="geometry" />
        </mxCell>
        <mxCell id="3MwxsGR7Ld4jN5NIhHju-3" value="Вызов функции classify_product" style="whiteSpace=wrap;strokeWidth=2;" vertex="1" parent="1">
          <mxGeometry x="324" y="406" width="176" height="66" as="geometry" />
        </mxCell>
        <mxCell id="3MwxsGR7Ld4jN5NIhHju-4" value="Код найден?" style="rhombus;strokeWidth=2;whiteSpace=wrap;" vertex="1" parent="1">
          <mxGeometry x="342" y="522" width="140" height="140" as="geometry" />
        </mxCell>
        <mxCell id="3MwxsGR7Ld4jN5NIhHju-5" value="Вывод кода ТН ВЭД" style="whiteSpace=wrap;strokeWidth=2;" vertex="1" parent="1">
          <mxGeometry x="229" y="735" width="205" height="49" as="geometry" />
        </mxCell>
        <mxCell id="3MwxsGR7Ld4jN5NIhHju-6" value="Вывод сообщения \Код не найден\" style="whiteSpace=wrap;strokeWidth=2;" vertex="1" parent="1">
          <mxGeometry x="563" y="1185" width="253" height="66" as="geometry" />
        </mxCell>
        <mxCell id="3MwxsGR7Ld4jN5NIhHju-7" value="Вызов функции verify_code" style="whiteSpace=wrap;strokeWidth=2;" vertex="1" parent="1">
          <mxGeometry x="179" y="833" width="174" height="66" as="geometry" />
        </mxCell>
        <mxCell id="3MwxsGR7Ld4jN5NIhHju-8" value="Код корректен?" style="rhombus;strokeWidth=2;whiteSpace=wrap;" vertex="1" parent="1">
          <mxGeometry x="184" y="949" width="163" height="163" as="geometry" />
        </mxCell>
        <mxCell id="3MwxsGR7Ld4jN5NIhHju-9" value="Вывод сообщения \Код корректен\" style="whiteSpace=wrap;strokeWidth=2;" vertex="1" parent="1">
          <mxGeometry x="20" y="1185" width="231" height="66" as="geometry" />
        </mxCell>
        <mxCell id="3MwxsGR7Ld4jN5NIhHju-10" value="Вывод сообщения \Ошибка в коде\" style="whiteSpace=wrap;strokeWidth=2;" vertex="1" parent="1">
          <mxGeometry x="301" y="1185" width="193" height="66" as="geometry" />
        </mxCell>
        <mxCell id="3MwxsGR7Ld4jN5NIhHju-11" value="Завершение классификации" style="whiteSpace=wrap;strokeWidth=2;" vertex="1" parent="1">
          <mxGeometry x="375" y="1301" width="176" height="66" as="geometry" />
        </mxCell>
        <mxCell id="3MwxsGR7Ld4jN5NIhHju-12" value="" style="curved=1;startArrow=none;endArrow=block;exitX=0.5;exitY=1;entryX=0.5;entryY=0;rounded=0;" edge="1" parent="1" source="3MwxsGR7Ld4jN5NIhHju-1" target="3MwxsGR7Ld4jN5NIhHju-2">
          <mxGeometry relative="1" as="geometry">
            <Array as="points" />
          </mxGeometry>
        </mxCell>
        <mxCell id="3MwxsGR7Ld4jN5NIhHju-13" value="" style="curved=1;startArrow=none;endArrow=block;exitX=0.5;exitY=1;entryX=0.5;entryY=0;rounded=0;" edge="1" parent="1" source="3MwxsGR7Ld4jN5NIhHju-2" target="3MwxsGR7Ld4jN5NIhHju-3">
          <mxGeometry relative="1" as="geometry">
            <Array as="points" />
          </mxGeometry>
        </mxCell>
        <mxCell id="3MwxsGR7Ld4jN5NIhHju-14" value="" style="curved=1;startArrow=none;endArrow=block;exitX=0.5;exitY=1;entryX=0.5;entryY=0;rounded=0;" edge="1" parent="1" source="3MwxsGR7Ld4jN5NIhHju-3" target="3MwxsGR7Ld4jN5NIhHju-4">
          <mxGeometry relative="1" as="geometry">
            <Array as="points" />
          </mxGeometry>
        </mxCell>
        <mxCell id="3MwxsGR7Ld4jN5NIhHju-15" value="Да" style="curved=1;startArrow=none;endArrow=block;exitX=0.12;exitY=1;entryX=0.5;entryY=-0.01;rounded=0;" edge="1" parent="1" source="3MwxsGR7Ld4jN5NIhHju-4" target="3MwxsGR7Ld4jN5NIhHju-5">
          <mxGeometry relative="1" as="geometry">
            <Array as="points">
              <mxPoint x="332" y="698" />
            </Array>
          </mxGeometry>
        </mxCell>
        <mxCell id="3MwxsGR7Ld4jN5NIhHju-16" value="Нет" style="curved=1;startArrow=none;endArrow=block;exitX=1;exitY=0.69;entryX=0.5;entryY=0;rounded=0;" edge="1" parent="1" source="3MwxsGR7Ld4jN5NIhHju-4" target="3MwxsGR7Ld4jN5NIhHju-6">
          <mxGeometry relative="1" as="geometry">
            <Array as="points">
              <mxPoint x="690" y="698" />
            </Array>
          </mxGeometry>
        </mxCell>
        <mxCell id="3MwxsGR7Ld4jN5NIhHju-17" value="" style="curved=1;startArrow=none;endArrow=block;exitX=0.34;exitY=0.98;entryX=0.5;entryY=0;rounded=0;" edge="1" parent="1" source="3MwxsGR7Ld4jN5NIhHju-5" target="3MwxsGR7Ld4jN5NIhHju-7">
          <mxGeometry relative="1" as="geometry">
            <Array as="points">
              <mxPoint x="266" y="808" />
            </Array>
          </mxGeometry>
        </mxCell>
        <mxCell id="3MwxsGR7Ld4jN5NIhHju-18" value="" style="curved=1;startArrow=none;endArrow=block;exitX=0.5;exitY=1;entryX=0.5;entryY=0;rounded=0;" edge="1" parent="1" source="3MwxsGR7Ld4jN5NIhHju-7" target="3MwxsGR7Ld4jN5NIhHju-8">
          <mxGeometry relative="1" as="geometry">
            <Array as="points" />
          </mxGeometry>
        </mxCell>
        <mxCell id="3MwxsGR7Ld4jN5NIhHju-19" value="Да" style="curved=1;startArrow=none;endArrow=block;exitX=0;exitY=0.96;entryX=0.5;entryY=0;rounded=0;" edge="1" parent="1" source="3MwxsGR7Ld4jN5NIhHju-8" target="3MwxsGR7Ld4jN5NIhHju-9">
          <mxGeometry relative="1" as="geometry">
            <Array as="points">
              <mxPoint x="135" y="1149" />
            </Array>
          </mxGeometry>
        </mxCell>
        <mxCell id="3MwxsGR7Ld4jN5NIhHju-20" value="Нет" style="curved=1;startArrow=none;endArrow=block;exitX=1.01;exitY=0.96;entryX=0.5;entryY=0;rounded=0;" edge="1" parent="1" source="3MwxsGR7Ld4jN5NIhHju-8" target="3MwxsGR7Ld4jN5NIhHju-10">
          <mxGeometry relative="1" as="geometry">
            <Array as="points">
              <mxPoint x="397" y="1149" />
            </Array>
          </mxGeometry>
        </mxCell>
        <mxCell id="3MwxsGR7Ld4jN5NIhHju-21" value="" style="curved=1;startArrow=none;endArrow=block;exitX=0.97;exitY=0.98;entryX=0.71;entryY=0;rounded=0;" edge="1" parent="1" source="3MwxsGR7Ld4jN5NIhHju-5" target="3MwxsGR7Ld4jN5NIhHju-11">
          <mxGeometry relative="1" as="geometry">
            <Array as="points">
              <mxPoint x="528" y="808" />
              <mxPoint x="528" y="1276" />
            </Array>
          </mxGeometry>
        </mxCell>
        <mxCell id="3MwxsGR7Ld4jN5NIhHju-22" value="" style="curved=1;startArrow=none;endArrow=block;exitX=0.5;exitY=1;entryX=1;entryY=0.16;rounded=0;" edge="1" parent="1" source="3MwxsGR7Ld4jN5NIhHju-6" target="3MwxsGR7Ld4jN5NIhHju-11">
          <mxGeometry relative="1" as="geometry">
            <Array as="points">
              <mxPoint x="690" y="1276" />
            </Array>
          </mxGeometry>
        </mxCell>
        <mxCell id="3MwxsGR7Ld4jN5NIhHju-23" value="" style="curved=1;startArrow=none;endArrow=block;exitX=0.5;exitY=1;entryX=0;entryY=0.27;rounded=0;" edge="1" parent="1" source="3MwxsGR7Ld4jN5NIhHju-9" target="3MwxsGR7Ld4jN5NIhHju-11">
          <mxGeometry relative="1" as="geometry">
            <Array as="points">
              <mxPoint x="135" y="1276" />
            </Array>
          </mxGeometry>
        </mxCell>
        <mxCell id="3MwxsGR7Ld4jN5NIhHju-24" value="" style="curved=1;startArrow=none;endArrow=block;exitX=0.5;exitY=1;entryX=0.28;entryY=0;rounded=0;" edge="1" parent="1" source="3MwxsGR7Ld4jN5NIhHju-10" target="3MwxsGR7Ld4jN5NIhHju-11">
          <mxGeometry relative="1" as="geometry">
            <Array as="points">
              <mxPoint x="397" y="1276" />
            </Array>
          </mxGeometry>
        </mxCell>
      </root>
    </mxGraphModel>
  </diagram>
</mxfile>
